<svg xmlns="http://www.w3.org/2000/svg" height="800" width="1200" viewBox="-76.6587 -75 664.3754 450"><path d="M0 111.25h363.379V300H0z" fill="#fff"/><path d="M312.968 300v-13.923l26.07-29.463-.451-1.167-24.622-6.658 10.74-60.1-6.213-14.354v-13.82l8.993-11.607-11.356-14.503-3.564-21.325 38.654-31.86-5.148-21.42 27.565-52.446L425.994 0l27.824 9.15 27.429 23.782V165.5l-16.695 16.954 13.731 35.95-7.456 3.045 1.386 5.524 38.77 28.098.075 44.929z" fill="#fff"/><path d="M399.447 289.554H323.32l27.333-30.904-4.486-11.519-20.648-5.585 9.655-54.065-6.59-15.2v-8.364l11.65-15.042-14.565-18.6-2.199-13.171 39.023-32.168-5.722-23.823 23.434-44.567 44.86-6.323 23.626 7.784 22.458 19.46v123.965l-12.277 12.46-4.739-1.01-1.147 7.573 12.38 32.413-6.44 2.622 4.37 17.412 37.582 27.237v29.415z" fill="#2d1705"/><path d="M395.925 281l21.741-40.28 31.32-30.153 6.836 27.094 36.68 26.637v16.701zm68.596-5.996h22.655v-8.091l-29.292-21.263zM342.76 234.8l-12.42 3.742 17.794-51.19 20.526-18.962 19.883-3.544-7.92-4.738h-22.321l-23.824 10.017v-4.275l23.093-9.73h16.633l-15.124-4.384-16.688 3.927.055-.069 5.367-6.903 30.112-7.128 7.633-11.41-17.527-10.242-15.78-3.544h-16.62l32.919-27.142 21.658-27.927h8.966l3.625 5.073.007.506-10.515 39.391 24.615-33.458 21.222-2.499-11.526-26.486-17.432-5.613-28.364 3.851-10.652 9.164 14.763-28.084 38.49-5.408L442.09 23.9l20.635 17.795.007 116.685-6.111 6.282-10.366-2.103-5.27-7.757 3.994-63.768-12.783 65.448 9.273 13.697 4.561.983-1.536 10.352 10.201 26.8-5.729 2.124.014.061-69.626 29.218zm38.34-1.044l67.162-28.713-8.494-22.484 1.659-7.86-4.056-1.645-10.706-15.903 15.172-70.8zm66.937-74.81l7.19 1.633 3.687-3.66V65.975zm-75.608-50.11l12.243 2.778 1.304 17.31 5.995-21.406zm86.485-44.793V43.647L443.23 29.943z" fill="#c49a6b"/><path d="M299.532 169.632c0 3.981-1.81 5.982-5.45 5.982h-8.773v-40.436h8.05c4.117 0 6.173 1.987 6.173 5.974zm-2.861-46.847h-25.176v102.237h13.814V188h11.505c11.02 0 16.53-5.79 16.53-17.37v-30.325c0-11.682-5.557-17.52-16.673-17.52m-49.654 83.16c0 4.465-1.871 6.684-5.606 6.684h-5.606c-4.022 0-6.043-2.22-6.043-6.685v-83.16h-13.807v82.73c0 13 5.51 19.508 16.545 19.508h11.642c11.116 0 16.688-6.453 16.688-19.365v-82.872h-13.813zm-62.123 2.136c0 3.032-1.823 4.548-5.462 4.548h-10.358v-77.451h9.634c4.117 0 6.186 2.464 6.186 7.401zm-5.612-85.296H155.26v93.866l-20.996-93.86h-12.216l-20.102 89.838h-19.74v-34.025h18.129v-12.393H82.206v-31.033h20.423v-12.393H68.4v102.237h45.442l14.1-72.2h.287l14.243 72.2h39.692c11.014 0 16.531-4.93 16.531-14.81v-67.783c0-13.096-6.473-19.644-19.412-19.644M43.9 166.21H26.926v-43.426H13.113v102.237h13.813v-46.418h16.975v46.418h13.8V122.785H43.9zm-30.729 98.946c0-10.884 6.173-13.451 16.538-13.451h21.563c13.062 0 14.872 4.67 14.872 11.908v1.181H54.85c0-3.687-2.13-4.158-5.804-4.158H32.311c-5.804 0-7.32 1.393-7.32 7.764v4.608c0 6.364 1.516 7.757 7.32 7.757h16.53c3.005 0 6.01-.464 6.01-4.07v-1.065H40.538v-7.702h25.817v10.57c0 10.68-5.593 11.192-18.56 11.192H29.71c-10.365 0-16.538-2.561-16.538-13.445zm123.273-13.039h17.678l13.008 23.918 13.02-23.918h17.679v37.165H186.63V262.59h-.11l-15.083 26.69h-8.603l-15.09-26.69h-.096v26.69h-11.205zm73.382 0h43.891v8.623h-32.386v5.948h30.83v7.702h-30.83v5.954h33.048v8.938h-44.553zm53.298 24.998h11.52c.047 3.953 1.665 4.26 4.97 4.26h16.927c2.451 0 4.93-.266 4.93-3.133 0-3.244-4.165-3.435-18.996-3.435-17.323 0-19.29-2.062-19.29-11.191 0-6.726.629-11.915 15.132-11.915h18.9c13.28 0 14.516 4.472 14.516 10.986v1.188h-11.498c0-2.724-.321-3.858-5.6-3.858h-15.588c-2.588 0-4.356.874-4.356 2.882 0 3.236 4.227 3.332 16.572 3.284 17.883-.048 22.034 1.024 22.034 11.854 0 10.017-3.414 11.648-18.723 11.648h-16.77c-10.474 0-14.68-1.946-14.68-10.003zM92.148 274.66l8.173-14.01 8.119 14.01zm24.766 14.627h12.918l-21.535-37.173H92.373l-21.679 37.173h12.933l3.85-6.617h25.613zm196.442-47.353H13.116v-4.206h300.24z"/></svg>